<svg xmlns="http://www.w3.org/2000/svg" viewBox="0 0 32 32" width="32" height="32">
  <defs>
    <linearGradient id="r" x1="0%" y1="0%" x2="100%" y2="100%">
      <stop offset="0%" style="stop-color:#FF2020"/>
      <stop offset="100%" style="stop-color:#CC0000"/>
    </linearGradient>
  </defs>
  <!-- Background -->
  <rect width="32" height="32" fill="#080808" rx="4"/>
  <!-- Signal arcs -->
  <path d="M 6 16 A 10 10 0 0 1 16 6" stroke="#FF2020" stroke-width="1.5" fill="none" stroke-linecap="round" opacity="0.5"/>
  <path d="M 6 16 A 10 10 0 0 0 16 26" stroke="#FF2020" stroke-width="1.5" fill="none" stroke-linecap="round" opacity="0.5"/>
  <path d="M 26 16 A 10 10 0 0 0 16 6" stroke="#FF2020" stroke-width="1.5" fill="none" stroke-linecap="round" opacity="0.5"/>
  <path d="M 26 16 A 10 10 0 0 1 16 26" stroke="#FF2020" stroke-width="1.5" fill="none" stroke-linecap="round" opacity="0.5"/>
  <path d="M 10 16 A 6 6 0 0 1 16 10" stroke="#FF2020" stroke-width="1.8" fill="none" stroke-linecap="round" opacity="0.8"/>
  <path d="M 10 16 A 6 6 0 0 0 16 22" stroke="#FF2020" stroke-width="1.8" fill="none" stroke-linecap="round" opacity="0.8"/>
  <path d="M 22 16 A 6 6 0 0 0 16 10" stroke="#FF2020" stroke-width="1.8" fill="none" stroke-linecap="round" opacity="0.8"/>
  <path d="M 22 16 A 6 6 0 0 1 16 22" stroke="#FF2020" stroke-width="1.8" fill="none" stroke-linecap="round" opacity="0.8"/>
  <!-- Center dot -->
  <circle cx="16" cy="16" r="3.5" fill="url(#r)"/>
  <circle cx="16" cy="16" r="1.5" fill="#FF8888"/>
  <!-- Bottom bar -->
  <rect x="0" y="30" width="32" height="2" fill="#FF2020" rx="0"/>
</svg>
