<svg xmlns="http://www.w3.org/2000/svg" viewBox="0 0 600 200" width="600" height="200">
  <defs>
    <linearGradient id="redGrad" x1="0%" y1="0%" x2="100%" y2="100%">
      <stop offset="0%" style="stop-color:#CC0000"/>
      <stop offset="100%" style="stop-color:#990000"/>
    </linearGradient>
    <filter id="s"><feGaussianBlur stdDeviation="1.5" result="b"/><feMerge><feMergeNode in="b"/><feMergeNode in="SourceGraphic"/></feMerge></filter>
  </defs>

  <!-- White background -->
  <rect width="600" height="200" fill="#FFFFFF" rx="4"/>
  <rect x="0" y="196" width="600" height="4" fill="url(#redGrad)"/>

  <!-- Signal arcs - dark on white -->
  <path d="M 58 100 A 42 42 0 0 1 100 58" stroke="#CC0000" stroke-width="2.5" fill="none" stroke-linecap="round" opacity="0.35"/>
  <path d="M 58 100 A 42 42 0 0 0 100 142" stroke="#CC0000" stroke-width="2.5" fill="none" stroke-linecap="round" opacity="0.35"/>
  <path d="M 68 100 A 28 28 0 0 1 96 72" stroke="#CC0000" stroke-width="2.5" fill="none" stroke-linecap="round" opacity="0.6"/>
  <path d="M 68 100 A 28 28 0 0 0 96 128" stroke="#CC0000" stroke-width="2.5" fill="none" stroke-linecap="round" opacity="0.6"/>
  <path d="M 78 100 A 14 14 0 0 1 92 86" stroke="#CC0000" stroke-width="2.5" fill="none" stroke-linecap="round"/>
  <path d="M 78 100 A 14 14 0 0 0 92 114" stroke="#CC0000" stroke-width="2.5" fill="none" stroke-linecap="round"/>
  <circle cx="100" cy="100" r="6" fill="url(#redGrad)"/>
  <circle cx="100" cy="100" r="3" fill="#FF4444"/>

  <line x1="128" y1="40" x2="128" y2="160" stroke="#DDDDDD" stroke-width="1"/>

  <text x="145" y="130" font-family="'Arial Black','Impact',sans-serif" font-size="72" font-weight="900" letter-spacing="6" fill="#111111">NEXUS</text>
  <text x="145" y="168" font-family="'Arial Black','Impact',sans-serif" font-size="36" font-weight="900" letter-spacing="14" fill="url(#redGrad)">NOW</text>
  <text x="148" y="185" font-family="'Arial',sans-serif" font-size="9" letter-spacing="3.5" fill="#AAAAAA">EVERY STORY · EVERY SECOND · EVERYWHERE</text>
</svg>
